<mxfile host="app.diagrams.net" agent="Mozilla/5.0 (Windows NT 10.0; Win64; x64) AppleWebKit/537.36 (KHTML, like Gecko) Chrome/131.0.0.0 Safari/537.36" version="25.0.3">
  <diagram name="Page-1" id="IvIoL7CAxlZ72kbyXTXH">
    <mxGraphModel dx="2035" dy="1012" grid="1" gridSize="10" guides="1" tooltips="1" connect="1" arrows="1" fold="1" page="1" pageScale="1" pageWidth="827" pageHeight="1169" math="0" shadow="0">
      <root>
        <mxCell id="0" />
        <mxCell id="1" parent="0" />
        <mxCell id="36uG_-bk_KPdx006H_jI-35" value="" style="endArrow=none;html=1;rounded=0;exitX=1;exitY=1;exitDx=0;exitDy=0;entryX=0.5;entryY=0;entryDx=0;entryDy=0;dashed=1;startArrow=open;startFill=0;" edge="1" parent="1" target="36uG_-bk_KPdx006H_jI-30">
          <mxGeometry width="50" height="50" relative="1" as="geometry">
            <mxPoint x="487.79036790187183" y="534.1421356237311" as="sourcePoint" />
            <mxPoint x="614.38" y="561.5" as="targetPoint" />
          </mxGeometry>
        </mxCell>
        <mxCell id="36uG_-bk_KPdx006H_jI-37" value="" style="endArrow=none;html=1;rounded=0;exitX=0;exitY=1;exitDx=0;exitDy=0;entryX=0.5;entryY=0;entryDx=0;entryDy=0;dashed=1;startArrow=open;startFill=0;" edge="1" parent="1" target="36uG_-bk_KPdx006H_jI-29">
          <mxGeometry width="50" height="50" relative="1" as="geometry">
            <mxPoint x="390.20963209812817" y="534.1421356237308" as="sourcePoint" />
            <mxPoint x="354" y="567" as="targetPoint" />
          </mxGeometry>
        </mxCell>
        <mxCell id="36uG_-bk_KPdx006H_jI-38" value="" style="endArrow=none;html=1;rounded=0;exitX=0.541;exitY=1.033;exitDx=0;exitDy=0;dashed=1;startArrow=open;startFill=0;exitPerimeter=0;" edge="1" parent="1" target="36uG_-bk_KPdx006H_jI-31">
          <mxGeometry width="50" height="50" relative="1" as="geometry">
            <mxPoint x="444.6579999999999" y="541.3199999999999" as="sourcePoint" />
            <mxPoint x="572" y="567" as="targetPoint" />
          </mxGeometry>
        </mxCell>
        <mxCell id="36uG_-bk_KPdx006H_jI-41" value="" style="endArrow=none;html=1;rounded=0;exitX=0;exitY=1;exitDx=0;exitDy=0;entryX=0.5;entryY=0;entryDx=0;entryDy=0;dashed=1;startArrow=open;startFill=0;" edge="1" parent="1" target="36uG_-bk_KPdx006H_jI-48">
          <mxGeometry width="50" height="50" relative="1" as="geometry">
            <mxPoint x="535.2096320981282" y="684.1421356237311" as="sourcePoint" />
            <mxPoint x="499" y="717" as="targetPoint" />
          </mxGeometry>
        </mxCell>
        <mxCell id="36uG_-bk_KPdx006H_jI-43" value="" style="endArrow=none;html=1;rounded=0;exitX=0.541;exitY=1.033;exitDx=0;exitDy=0;dashed=1;startArrow=open;startFill=0;exitPerimeter=0;" edge="1" parent="1" target="36uG_-bk_KPdx006H_jI-49">
          <mxGeometry width="50" height="50" relative="1" as="geometry">
            <mxPoint x="589.6579999999999" y="691.3199999999999" as="sourcePoint" />
            <mxPoint x="717" y="717" as="targetPoint" />
          </mxGeometry>
        </mxCell>
        <mxCell id="36uG_-bk_KPdx006H_jI-45" value="" style="endArrow=none;html=1;rounded=0;exitX=1;exitY=1;exitDx=0;exitDy=0;entryX=0.5;entryY=0;entryDx=0;entryDy=0;dashed=1;startArrow=open;startFill=0;" edge="1" parent="1" target="36uG_-bk_KPdx006H_jI-50">
          <mxGeometry width="50" height="50" relative="1" as="geometry">
            <mxPoint x="632.7903679018718" y="684.1421356237311" as="sourcePoint" />
            <mxPoint x="759.38" y="711.5" as="targetPoint" />
          </mxGeometry>
        </mxCell>
        <mxCell id="36uG_-bk_KPdx006H_jI-55" value="" style="endArrow=none;html=1;rounded=0;exitX=0;exitY=1;exitDx=0;exitDy=0;entryX=0.5;entryY=0;entryDx=0;entryDy=0;dashed=1;startArrow=open;startFill=0;" edge="1" parent="1" target="36uG_-bk_KPdx006H_jI-62">
          <mxGeometry width="50" height="50" relative="1" as="geometry">
            <mxPoint x="750.2096320981282" y="824.1421356237308" as="sourcePoint" />
            <mxPoint x="714" y="857" as="targetPoint" />
          </mxGeometry>
        </mxCell>
        <mxCell id="36uG_-bk_KPdx006H_jI-56" value="" style="endArrow=none;html=1;rounded=0;dashed=1;startArrow=open;startFill=0;" edge="1" parent="1" target="36uG_-bk_KPdx006H_jI-63">
          <mxGeometry width="50" height="50" relative="1" as="geometry">
            <mxPoint x="800.5380792690223" y="829.9950304972917" as="sourcePoint" />
            <mxPoint x="932" y="857" as="targetPoint" />
          </mxGeometry>
        </mxCell>
        <mxCell id="36uG_-bk_KPdx006H_jI-57" value="" style="endArrow=none;html=1;rounded=0;exitX=1;exitY=1;exitDx=0;exitDy=0;entryX=0.5;entryY=0;entryDx=0;entryDy=0;dashed=1;startArrow=open;startFill=0;" edge="1" parent="1" target="36uG_-bk_KPdx006H_jI-64">
          <mxGeometry width="50" height="50" relative="1" as="geometry">
            <mxPoint x="847.7903679018718" y="824.1421356237311" as="sourcePoint" />
            <mxPoint x="974.38" y="851.5" as="targetPoint" />
          </mxGeometry>
        </mxCell>
      </root>
    </mxGraphModel>
  </diagram>
</mxfile>
